# 3ds Max Wavefront OBJ Exporter v0.97b - (c)2007 guruware
# File Created: 15.02.2018 23:03:10

mtllib laterale_sotto.mtl

#
# object Rectangle008
#

v  -214.2568 100.0098 249.6987
v  -205.3590 100.0098 249.6987
v  -205.3590 100.1096 249.6987
v  -214.2568 100.1096 249.6987
v  -214.2568 100.1096 235.2576
v  -214.2568 100.0098 235.2576
v  -214.2568 150.0578 249.6987
v  -205.3590 150.0578 249.6987
v  -205.3590 150.0578 235.2562
v  -214.2568 150.0578 235.2562
v  -214.2568 100.0098 -184.8425
v  -214.2568 100.1097 -184.8275
v  -205.3590 100.1097 -184.8275
v  -205.3590 100.0098 -184.8425
v  -205.2517 100.0098 249.6987
v  -205.3590 100.0098 235.2576
v  -205.2517 100.0098 235.2576
v  -205.2517 150.0578 -177.3329
v  -194.5930 150.0578 -177.3329
v  -194.5930 149.9578 -177.3479
v  -205.2517 149.9578 -177.3479
v  -205.2517 100.0098 199.7047
v  -205.2517 100.0098 199.6274
v  -194.5930 100.0098 199.6274
v  -194.5930 100.0098 199.7047
v  -194.5411 100.0098 199.7047
v  -194.5411 100.0098 199.6274
v  -194.5411 100.1096 199.6274
v  -194.5411 100.1096 199.7047
v  -214.2568 150.0578 199.6998
v  -214.2568 150.0578 199.6240
v  -214.2568 149.9577 199.6240
v  -214.2568 149.9577 199.6998
v  -205.2517 150.0578 199.6998
v  -205.2517 150.0578 199.6240
v  -205.3590 150.0578 199.6240
v  -205.3590 150.0578 199.6998
v  -214.2568 100.0098 199.7047
v  -214.2568 100.0098 199.6274
v  -205.3590 100.0098 199.6274
v  -205.3590 100.0098 199.7047
v  -194.5411 150.0578 199.6998
v  -194.5411 150.0578 199.6240
v  -194.5930 150.0578 199.6240
v  -194.5930 150.0578 199.6998
v  -194.5930 149.9577 199.6998
v  -194.5411 149.9577 199.6998
v  -205.2517 150.0578 235.2562
v  -205.2517 149.9577 235.2562
v  -205.2517 149.9577 199.6998
v  -205.2517 149.9577 249.6987
v  -205.2517 150.0578 249.6987
v  -205.3590 149.9577 249.6987
v  -214.2569 149.9577 249.6987
v  -214.2568 149.9577 235.2562
v  -214.2568 149.9578 -177.3479
v  -214.2568 150.0578 -177.3329
v  -205.3590 150.0578 -177.3329
v  -205.3590 149.9578 -177.3479
v  -194.5411 149.9578 -177.3479
v  -194.5411 100.1097 -184.8275
v  -194.5930 100.1097 -184.8275
v  -194.5411 150.0578 -177.3329
v  -194.5411 150.0578 -177.2918
v  -194.5411 149.9578 -177.3068
v  -214.2568 100.1097 -184.7855
v  -214.2568 149.9578 -177.3068
v  -205.2517 100.1096 199.7047
v  -194.5930 100.1096 199.7047
v  -205.2517 100.1096 249.6987
v  -205.2517 100.1096 235.2576
v  -194.5930 100.0098 -184.8425
v  -194.5411 100.0098 -184.8425
v  -194.5411 100.0098 -184.8005
v  -194.5930 100.0098 -184.8005
v  -205.2517 150.0578 -177.2918
v  -194.5930 150.0578 -177.2918
v  -205.2517 100.0098 -184.8425
v  -205.2517 100.1097 -184.8275
v  -205.2517 100.0098 198.9356
v  -205.2517 100.0098 -184.8005
v  -194.5930 100.0098 198.9357
v  -194.5411 100.0098 198.9356
v  -194.5411 100.1097 -184.7855
v  -194.5411 100.1096 198.9357
v  -214.2568 150.0578 198.9457
v  -214.2568 150.0578 -177.2918
v  -214.2568 149.9577 198.9457
v  -205.2517 150.0578 198.9457
v  -205.3590 150.0578 -177.2918
v  -205.3590 150.0578 198.9457
v  -214.2568 100.0098 198.9356
v  -214.2568 100.0098 -184.8005
v  -205.3590 100.0098 -184.8005
v  -205.3590 100.0098 198.9356
v  -194.5411 150.0578 198.9457
v  -194.5930 150.0578 198.9457
v  -194.5411 149.9577 199.6240
v  -194.5411 149.9577 198.9457
v  -214.2568 100.1096 199.6274
v  -214.2568 100.1096 198.9357
v  -214.2568 100.1096 199.7047
# 102 vertices

vn -0.5774 -0.5774 0.5774
vn 0.0000 -0.7071 0.7071
vn 0.0000 -0.0000 1.0000
vn -0.7071 -0.0000 0.7071
vn -1.0000 -0.0000 -0.0000
vn -0.7071 -0.7071 -0.0000
vn -0.5774 0.5774 0.5774
vn -0.0000 0.7071 0.7071
vn -0.0000 1.0000 0.0000
vn -0.7071 0.7071 -0.0000
vn -0.5700 -0.5363 -0.6225
vn -0.7071 0.1049 -0.6992
vn 0.0000 0.1484 -0.9889
vn 0.0000 -0.6527 -0.7577
vn 0.5774 -0.5774 0.5774
vn 0.0000 -1.0000 -0.0000
vn 0.7071 -0.7071 0.0000
vn 0.0000 0.7577 -0.6526
vn -0.0000 0.1484 -0.9889
vn 0.3015 -0.9045 0.3015
vn 0.0000 -1.0000 0.0000
vn 0.5774 -0.5773 0.5774
vn 1.0000 0.0000 -0.0000
vn 0.7071 0.0001 0.7071
vn -0.7071 0.7071 0.0000
vn 0.3015 0.9045 0.3015
vn -0.7071 -0.7071 0.0000
vn 0.5773 0.5774 0.5773
vn 0.7071 0.7071 0.0000
vn 0.0000 1.0000 0.0000
vn 0.0000 0.7071 0.7071
vn 0.0000 0.0001 1.0000
vn 1.0000 0.0000 0.0000
vn 0.7071 -0.0000 0.7071
vn 0.5773 0.5774 0.5774
vn -0.7071 0.0000 0.7071
vn -1.0000 0.0000 -0.0000
vn -0.7071 0.1049 -0.6993
vn -0.5856 0.6142 -0.5290
vn 0.7071 0.1049 -0.6993
vn 0.5856 0.6142 -0.5290
vn 1.0000 -0.0000 0.0000
vn -0.0000 0.0001 1.0000
vn 0.0000 -0.6526 -0.7577
vn 0.5699 -0.5362 -0.6226
vn 0.7071 -0.7071 -0.0000
vn -0.0000 -1.0000 -0.0000
# 47 vertex normals

o Rectangle008
g Rectangle008
usemtl wire_214229166
s 1
f 1//1 2//2 3//3 4//4 
s off
f 1//1 4//4 5//5 6//6 
f 7//7 8//8 9//9 10//10 
f 11//11 12//12 13//13 14//14 
f 15//15 2//2 16//16 17//17 
f 18//18 19//18 20//19 21//19 
f 22//20 23//21 24//16 25//2 
f 26//22 27//17 28//23 29//24 
f 30//25 31//25 32//5 33//5 
f 34//26 35//9 36//9 37//9 
f 38//6 39//27 40//21 41//16 
f 42//28 43//29 44//30 45//31 
s 1
f 42//28 45//31 46//32 47//24 
s 2
f 34//26 48//29 49//33 50//24 
s 1
f 51//34 52//35 8//8 53//3 
s off
f 54//36 7//7 10//10 55//37 
f 56//38 57//39 58//18 59//13 
f 60//40 61//40 62//19 20//19 
f 60//40 63//41 64//29 65//42 
f 56//38 12//12 66//5 67//5 
s 1
f 50//24 68//24 69//43 46//32 
s 2
f 51//34 70//34 71//33 49//33 
s off
f 19//18 63//41 60//40 20//19 
f 72//44 73//45 74//46 75//16 
f 19//18 18//18 76//30 77//30 
s 1
f 45//31 34//26 50//24 46//32 
s off
f 72//44 78//14 79//19 62//19 
s 1
f 25//2 26//22 29//24 69//43 
s off
f 80//21 81//16 75//16 82//47 
f 83//17 74//46 84//42 85//42 
f 86//25 87//25 67//5 88//5 
f 89//9 76//30 90//30 91//9 
f 92//27 93//6 94//16 95//21 
f 96//29 64//29 77//30 97//9 
f 96//29 43//29 98//23 99//42 
f 92//27 39//27 100//5 101//5 
f 83//17 27//17 24//16 82//47 
f 89//9 35//9 44//30 97//9 
s 1
f 2//2 15//15 70//34 3//3 
s off
f 8//8 52//35 48//29 9//9 
f 59//13 21//19 79//19 13//13 
f 2//2 1//1 6//6 16//16 
f 91//9 86//25 31//25 36//9 
f 95//21 80//21 23//21 40//21 
s 1
f 8//8 7//7 54//36 53//3 
s off
f 58//18 18//18 21//19 59//13 
f 58//18 57//39 87//25 90//30 
f 14//14 78//14 81//16 94//16 
s 1
f 3//3 53//3 54//36 4//4 
s off
f 4//4 54//36 55//37 5//5 
f 12//12 56//38 59//13 13//13 
f 85//42 99//42 98//23 28//23 
f 61//40 73//45 72//44 62//19 
f 12//12 11//11 93//6 66//5 
s 1
f 68//24 22//20 25//2 69//43 
s 2
f 70//34 15//15 17//17 71//33 
s off
f 79//19 21//19 20//19 62//19 
s 1
f 29//24 47//24 46//32 69//43 
s off
f 61//40 60//40 65//42 84//42 
f 102//5 33//5 32//5 100//5 
s 1
f 70//34 51//34 53//3 3//3 
s off
f 79//19 78//14 14//14 13//13 
f 23//21 80//21 82//47 24//16 
f 27//17 83//17 85//42 28//23 
f 31//25 86//25 88//5 32//5 
f 35//9 89//9 91//9 36//9 
f 39//27 92//27 95//21 40//21 
f 43//29 96//29 97//9 44//30 
f 43//29 42//28 47//24 98//23 
f 39//27 38//6 102//5 100//5 
f 27//17 26//22 25//2 24//16 
f 35//9 34//26 45//31 44//30 
f 31//25 30//25 37//9 36//9 
f 23//21 22//20 41//16 40//21 
f 98//23 47//24 29//24 28//23 
f 32//5 88//5 101//5 100//5 
f 5//5 102//5 38//6 6//6 
f 9//9 37//9 30//25 10//10 
f 16//16 41//16 22//20 17//17 
s 2
f 48//29 52//35 51//34 49//33 
s off
f 10//10 30//25 33//5 55//37 
s 2
f 71//33 68//24 50//24 49//33 
s off
f 48//29 34//26 37//9 9//9 
f 6//6 38//6 41//16 16//16 
f 55//37 33//5 102//5 5//5 
s 2
f 17//17 22//20 68//24 71//33 
s off
f 64//29 96//29 99//42 65//42 
f 66//5 101//5 88//5 67//5 
f 74//46 83//17 82//47 75//16 
f 76//30 89//9 97//9 77//30 
f 87//25 86//25 91//9 90//30 
f 81//16 80//21 95//21 94//16 
f 93//6 92//27 101//5 66//5 
f 65//42 99//42 85//42 84//42 
f 81//16 78//14 72//44 75//16 
f 74//46 73//45 61//40 84//42 
f 87//25 57//39 56//38 67//5 
f 76//30 18//18 58//18 90//30 
f 93//6 11//11 14//14 94//16 
f 64//29 63//41 19//18 77//30 
# 100 polygons

