# 3ds Max Wavefront OBJ Exporter v0.97b - (c)2007 guruware
# File Created: 15.02.2018 23:04:19

mtllib pezzo_no_153810.mtl

#
# object Box001
#

v  0.2102 0.0000 9.5550
v  -0.7947 0.0000 7.6390
v  1.1680 0.0000 7.6390
v  2.0991 0.0000 9.5550
v  0.2102 0.7308 9.5550
v  2.0427 0.7308 9.5550
v  1.3162 1.2025 7.2831
v  -0.7947 0.7308 7.6390
v  0.2102 0.0000 -9.5550
v  -0.7949 0.0000 -7.6366
v  -0.7949 0.7308 -7.6366
v  0.2102 0.7308 -9.5550
v  -4.7986 0.0000 0.0048
v  -3.3147 0.0000 -2.8274
v  -1.1670 0.0000 -2.8274
v  -2.5420 0.0000 0.0048
v  -3.4382 0.0000 2.5987
v  -3.4382 0.7308 2.5987
v  -4.7986 0.7308 0.0048
v  25.1689 0.7308 -9.5550
v  15.5497 0.7308 -9.5550
v  15.0292 1.2025 -7.2806
v  24.7952 1.2025 -7.2806
v  25.9376 0.0000 -9.5550
v  16.0221 0.0000 -9.5550
v  24.3281 1.8276 0.0048
v  24.3267 1.8276 -2.8274
v  24.3281 9.3504 -2.8274
v  24.3281 9.3792 0.0048
v  25.9376 0.0000 9.5550
v  25.9376 0.0000 7.6390
v  25.9376 8.3093 7.6390
v  25.9376 7.8942 9.5550
v  24.7952 8.7612 -7.2806
v  25.1689 8.2447 -9.5550
v  25.1689 0.7308 9.5550
v  25.1689 8.2447 9.5550
v  25.9376 7.8942 -9.5550
v  25.1689 19.1339 0.0048
v  25.1689 18.0546 2.5987
v  25.9376 18.0539 2.5987
v  25.9376 19.1332 0.0048
v  25.1689 15.1601 -9.5550
v  25.1689 15.9576 -7.6366
v  25.9376 15.9569 -7.6366
v  25.9376 15.1594 -9.5550
v  2.5834 1.8052 0.0048
v  2.5712 1.8052 2.5987
v  -1.2815 0.0000 2.5987
v  5.3160 0.7308 9.5550
v  4.6395 1.2025 7.2831
v  5.4733 0.0000 9.5550
v  2.0991 0.0000 -9.5550
v  5.4733 0.0000 -9.5550
v  4.6738 0.0081 -7.6366
v  1.1678 0.0000 -7.6366
v  2.0427 0.7308 -9.5550
v  1.3160 1.2025 -7.2806
v  25.9376 14.0409 -9.5550
v  25.9376 14.7795 -7.6366
v  25.9376 17.7215 0.0048
v  25.9376 16.7218 2.5987
v  25.1689 14.0954 9.5550
v  25.1689 15.1601 9.5550
v  25.1689 15.9574 7.6390
v  24.7952 14.6466 7.2831
v  24.7952 17.5566 0.0047
v  25.1689 17.9566 -2.8274
v  24.7952 16.4781 -2.6955
v  25.9376 14.0409 9.5550
v  25.9376 15.1594 9.5550
v  25.1689 14.0954 -9.5550
v  -3.3147 0.7308 -2.8274
v  25.9376 0.0000 -7.6366
v  25.9376 8.3094 -7.6366
v  25.9376 17.9559 -2.8274
v  14.6636 1.8052 -2.8274
v  15.6348 0.0081 -7.6366
v  -0.9932 1.2025 -2.6955
v  25.9376 16.6310 -2.8274
v  24.7952 14.6468 -7.2806
v  -1.1064 1.2025 2.4777
v  24.3281 1.8276 2.5987
v  24.3281 9.4014 2.5987
v  24.7952 1.2025 7.2831
v  24.7952 8.7611 7.2831
v  25.9376 15.9567 7.6390
v  16.0221 0.0000 9.5550
v  15.6349 0.0027 7.6390
v  25.9376 14.7793 7.6390
v  24.7952 16.5679 2.4777
v  0.3755 2.4558 -2.4661
v  2.4884 2.4558 -6.6612
v  -2.3532 1.2025 0.0047
v  0.2720 2.4558 2.2671
v  -0.8688 2.4558 0.0045
v  23.7147 15.7029 -2.4661
v  23.7147 16.6897 0.0045
v  24.7952 12.2539 -7.2806
v  23.7147 11.9666 -6.6612
v  23.7147 14.0273 -6.6612
v  23.7147 15.7850 2.2671
v  23.7147 14.0272 6.6639
v  23.7147 8.9616 6.6639
v  23.7147 2.4559 6.6639
v  23.7147 2.4492 -6.6612
v  14.8858 2.4519 -6.6612
v  14.8859 2.4559 6.6639
v  15.0293 1.2025 7.2831
v  3.5650 2.4553 0.0045
v  3.6790 2.4552 -2.4661
v  23.7147 13.3444 -2.4661
v  23.7147 13.3945 0.0045
v  3.5901 2.4555 2.2671
v  23.7147 2.4525 0.0045
v  23.7147 2.4537 2.2671
v  23.7147 9.9489 2.2671
v  23.7147 9.9034 0.0045
v  14.5681 1.8052 0.0048
v  23.7147 2.4513 -2.4661
v  14.0070 2.4532 -2.4661
v  14.6160 1.8052 2.5987
v  2.4886 2.4558 6.6639
v  5.4930 2.4558 6.6639
v  5.3160 0.7308 -9.5550
v  4.6393 1.2025 -7.2806
v  4.1717 1.8052 0.0048
v  4.9404 1.8052 1.6956
v  10.5864 0.7308 9.5550
v  9.9903 1.2025 7.2831
v  10.9059 0.0000 9.5550
v  10.9059 0.0000 -9.5550
v  10.3187 0.0081 -7.6366
v  2.6695 1.8052 -2.8274
v  4.6739 0.0033 7.6390
v  5.4928 2.4549 -6.6612
v  4.1678 2.4548 0.0045
v  4.9650 2.4548 -1.7838
v  4.9380 2.4549 1.6989
v  10.3304 2.4558 6.6639
v  8.9326 2.4550 2.2671
v  10.5864 0.7308 -9.5550
v  9.9901 1.2025 -7.2806
v  8.8465 1.8052 -2.8274
v  10.3188 0.0027 7.6390
v  10.3302 2.4534 -6.6612
v  13.2561 1.8052 0.0048
v  12.5682 1.8052 -1.7952
v  8.9979 2.4541 -2.4661
v  8.7743 1.8052 2.5987
v  15.5498 0.7308 9.5550
v  13.9658 2.4539 0.0045
v  13.9639 2.4546 2.2671
v  8.7651 1.8052 1.7118
v  12.5899 1.8052 1.7247
v  8.9809 2.4543 -1.8115
v  12.5613 2.4542 -1.8070
v  12.5835 2.4546 1.7356
v  8.9351 2.4549 1.7116
v  8.8071 1.8052 -1.8105
v  4.9669 1.8052 -1.7792
v  13.2548 2.4544 0.0045
v  24.3281 13.6710 -2.8274
v  24.3281 13.8061 0.0048
v  25.9376 12.1489 7.6390
v  25.9376 11.5419 9.5550
v  25.1689 11.7168 -9.5550
v  25.1689 11.7168 9.5550
v  25.9376 11.5419 -9.5550
v  25.9376 12.1490 -7.6366
v  24.3281 13.7457 2.5987
v  24.7952 12.2538 7.2831
v  24.7952 10.4194 -7.2806
v  23.7147 10.3867 -6.6612
v  23.7147 11.9677 6.6639
v  23.7147 12.5078 -1.2795
v  23.7147 13.1736 0.0045
v  23.7147 13.4123 2.2671
v  23.7147 11.5361 -2.4661
v  24.3281 10.5783 -1.2383
v  24.3281 9.9678 0.0048
v  25.9376 10.1321 7.6390
v  25.9376 9.6259 9.5550
v  25.1689 9.8931 -9.5550
v  25.1689 9.8931 9.5550
v  25.9376 9.6259 -9.5550
v  25.9376 10.1322 -7.6366
v  24.3281 11.4638 2.5987
v  24.7952 10.4192 7.2831
v  23.7147 10.3887 6.6639
v  23.7147 10.6757 1.2728
v  23.7147 10.0317 0.0045
v  24.3281 11.4016 -2.8274
v  24.3281 10.5398 1.2172
v  23.7147 11.5932 2.2671
v  23.7147 8.9587 -6.6612
v  23.7147 9.9017 -2.4661
v  23.7147 10.7118 -1.2895
v  23.7147 11.5603 -1.5659
v  24.3281 12.4837 -1.2502
v  24.3281 11.4628 -1.5643
v  23.7147 12.5839 1.2313
v  23.7147 11.5961 1.5754
v  24.3281 11.4934 1.5751
v  24.3281 12.5568 1.2013
v  24.3281 13.1098 0.0048
# 206 vertices

vn -0.4112 -0.6071 0.6800
vn -0.6262 -0.7071 0.3284
vn 0.0005 -1.0000 -0.0002
vn 0.0000 -0.7071 0.7071
vn -0.4112 0.6071 0.6800
vn 0.0000 0.6311 0.7757
vn -0.2433 0.9095 0.3370
vn -0.6933 0.6222 0.3636
vn -0.4113 -0.6071 -0.6799
vn -0.6263 -0.7071 -0.3282
vn -0.6935 0.6222 -0.3633
vn -0.4113 0.6071 -0.6799
vn -0.7877 -0.6161 0.0001
vn 0.2147 -0.9711 0.1042
vn 0.1207 -0.9927 -0.0000
vn -0.6908 0.6257 0.3623
vn -0.8304 0.5572 0.0001
vn -0.2426 0.2482 -0.9378
vn -0.0000 0.6312 -0.7756
vn 0.0000 0.7915 -0.6112
vn -0.5813 0.5704 -0.5802
vn 0.5774 -0.5774 -0.5773
vn 0.0000 -0.7086 -0.7056
vn 0.7080 -0.7062 -0.0002
vn 0.6904 -0.6755 0.2592
vn 0.9870 -0.0001 0.1608
vn 1.0000 0.0000 -0.0000
vn 0.5774 -0.5774 0.5773
vn 0.6893 -0.6953 -0.2037
vn 0.9881 0.0000 -0.1539
vn 0.7071 0.0000 0.7071
vn -0.8216 0.0000 -0.5701
vn -0.6472 0.0000 -0.7623
vn -0.2426 0.2482 0.9379
vn -0.6472 -0.0000 0.7623
vn 0.7071 0.0000 -0.7071
vn -0.5550 0.8319 0.0001
vn -0.6101 0.7315 0.3044
vn 0.7074 0.6526 0.2715
vn 0.6304 0.7763 0.0001
vn -0.6008 0.4438 -0.6649
vn -0.6049 0.7353 -0.3056
vn 0.7074 0.6527 -0.2713
vn 0.6011 0.4434 -0.6649
vn 0.1698 -0.9855 0.0030
vn 0.2296 -0.9516 -0.2043
vn 0.2139 -0.9713 -0.1040
vn 0.0000 0.7910 0.6118
vn 0.0000 -0.7077 0.7065
vn 0.0000 -0.7071 -0.7071
vn 0.0012 -0.9836 0.1804
vn 0.0012 -1.0000 0.0006
vn 0.0000 0.6312 -0.7756
vn -0.2433 0.9096 -0.3368
vn 1.0000 -0.0000 0.0000
vn 0.9888 -0.1495 -0.0000
vn 0.9657 -0.2423 -0.0934
vn -0.6472 0.0000 0.7623
vn -0.6008 0.4437 0.6649
vn -0.6049 0.7352 0.3059
vn -0.9022 0.2737 0.3333
vn -0.8807 0.4737 0.0001
vn -0.6099 0.7318 -0.3042
vn -0.8289 0.5196 -0.2075
vn 0.6011 0.4433 0.6649
vn -0.6911 0.6255 -0.3621
vn 0.6879 -0.6943 0.2114
vn 0.9870 -0.0000 0.1608
vn 0.7074 0.6526 -0.2713
vn 0.0011 -0.9840 0.1780
vn -0.0004 -0.9837 0.1799
vn -0.4184 0.8835 -0.2107
vn 0.9654 -0.2433 0.0937
vn -0.9023 0.2737 -0.3331
vn -0.4181 0.8836 0.2108
vn 0.6923 -0.6777 -0.2479
vn -0.5811 0.5703 0.5806
vn -0.8215 -0.0000 0.5702
vn 0.7074 0.6525 0.2715
vn 0.0000 -0.7076 0.7066
vn -0.0001 -0.9852 -0.1715
vn -0.8290 0.5192 0.2076
vn -0.3301 0.9292 -0.1662
vn -0.1947 0.8405 -0.5057
vn -0.3667 0.9303 0.0001
vn -0.3301 0.9292 0.1664
vn -0.4265 0.9045 0.0001
vn -0.8937 0.4166 -0.1664
vn -0.8604 0.5097 0.0001
vn -0.8653 -0.0000 -0.5013
vn -0.8344 0.2795 -0.4749
vn -0.8937 0.4166 0.1665
vn -0.8344 0.2794 0.4750
vn -0.8652 -0.0000 0.5014
vn -0.4975 0.4637 0.7331
vn -0.4969 0.4647 -0.7329
vn 0.0003 0.8497 -0.5273
vn -0.0000 0.8495 0.5276
vn 0.0005 1.0000 -0.0001
vn 0.0002 1.0000 -0.0000
vn -1.0000 0.0000 -0.0000
vn 0.0002 1.0000 -0.0001
vn -0.7071 0.7072 -0.0004
vn -0.7071 0.7071 -0.0004
vn 0.0011 -1.0000 0.0000
vn -0.7070 0.7072 -0.0004
vn 0.0003 1.0000 -0.0003
vn 0.0011 -0.9853 -0.1710
vn -0.1948 0.8404 0.5058
vn -0.0000 0.8494 0.5277
vn -0.0000 0.7912 -0.6115
vn 0.5857 -0.8105 -0.0022
vn 0.2867 -0.8493 -0.4433
vn 0.0000 -0.9837 0.1799
vn 0.2271 -0.9501 0.2140
vn 0.0004 -0.9851 -0.1718
vn 0.0003 0.8495 -0.5276
vn 0.5816 0.8135 -0.0021
vn 0.2855 0.8529 0.4370
vn 0.2839 0.8520 -0.4398
vn 0.0001 1.0000 -0.0002
vn 0.0000 0.7914 -0.6114
vn 0.0000 -0.9841 0.1779
vn 0.0003 0.8496 -0.5274
vn -0.6025 -0.7981 -0.0014
vn -0.2961 -0.8569 0.4220
vn 0.0002 1.0000 -0.0002
vn 0.0000 -0.9853 -0.1709
vn -0.0000 0.6311 0.7757
vn 0.0004 1.0000 -0.0003
vn 0.0001 1.0000 -0.0003
vn 0.0027 -0.7077 -0.7065
vn -0.2929 -0.8574 -0.4233
vn 0.0016 0.7084 0.7058
vn -0.2856 0.8613 0.4201
vn -0.2829 0.8613 -0.4221
vn 0.0037 0.7060 -0.7082
vn 0.0022 -0.7083 0.7060
vn 0.2893 -0.8495 0.4412
vn -0.6036 0.7973 -0.0014
vn 0.9485 -0.2513 0.1930
vn 0.9802 -0.1980 0.0025
vn 0.7071 -0.0000 0.7071
vn 0.7071 -0.0000 -0.7071
vn 0.9870 0.0000 0.1608
vn 0.9498 -0.2529 -0.1843
vn -0.8653 0.0000 -0.5013
vn -0.8652 0.0000 0.5014
vn -0.8226 -0.3632 0.4375
vn -0.8483 -0.5295 0.0079
vn 0.8263 0.3972 0.3993
vn 0.8449 0.5350 0.0040
vn 0.9881 -0.0000 -0.1539
vn -0.7856 0.3763 -0.4911
vn -0.7985 0.6020 0.0045
vn 0.8276 0.4010 -0.3929
vn -0.7835 0.3750 0.4956
vn -0.7828 -0.0121 0.6222
vn 0.7898 -0.3967 0.4677
vn 0.7887 0.0365 0.6137
vn -0.8223 -0.3791 -0.4245
vn -0.7890 -0.0261 -0.6138
vn 0.7947 0.0282 -0.6064
vn 0.7873 -0.4148 -0.4562
vn 0.7899 -0.6131 0.0093
# 165 vertex normals

vt 1.0000 0.0000 0.0000
vt 1.0000 0.1003 0.0000
vt 0.9266 0.1003 0.0000
vt 0.9266 0.0000 0.0000
vt 0.0000 0.0000 0.0000
vt 0.0716 0.0000 0.0000
vt 0.0716 0.1003 0.0000
vt 0.0000 0.1003 0.0000
vt 0.0734 0.0000 0.0000
vt 0.0716 1.0000 0.0000
vt 0.0000 1.0000 0.0000
vt 0.1004 0.0000 0.0000
vt 0.1004 1.0000 0.0000
vt 1.0000 0.4997 0.0000
vt 1.0000 0.6480 0.0000
vt 0.9266 0.6480 0.0000
vt 0.9266 0.4997 0.0000
vt 0.5003 0.0000 0.0000
vt 0.6360 0.0000 0.0000
vt 0.6360 1.0000 0.0000
vt 0.5003 1.0000 0.0000
vt 0.9750 1.0000 0.0000
vt 0.5992 1.0000 0.0000
vt 0.5992 0.8996 0.0000
vt 0.9750 0.8996 0.0000
vt 0.3854 0.0000 0.0000
vt 0.4008 1.0000 0.0000
vt 0.0250 1.0000 0.0000
vt 0.0000 0.4997 0.0000
vt 0.0000 0.6480 0.0000
vt 1.0000 0.6356 0.0000
vt 0.0000 0.7284 0.0000
vt 0.6005 0.1003 0.0000
vt 0.7993 0.2007 0.0000
vt 0.7954 0.4997 0.0000
vt 0.7954 0.3640 0.0000
vt 0.9266 0.3640 0.0000
vt 0.1995 0.0000 0.0000
vt 0.1995 0.1003 0.0000
vt 0.2046 0.0000 0.0000
vt 0.1995 1.0000 0.0000
vt 0.9266 1.0000 0.0000
vt 0.7954 1.0000 0.0000
vt 0.7954 0.8996 0.0000
vt 0.9266 0.8996 0.0000
vt 0.0000 0.8996 0.0000
vt 0.0716 0.8996 0.0000
vt 1.0000 1.0000 0.0000
vt 0.9284 1.0000 0.0000
vt 0.0000 0.3640 0.0000
vt 0.9750 0.0000 0.0000
vt 0.9750 0.1003 0.0000
vt 0.9750 0.4997 0.0000
vt 0.9750 0.6480 0.0000
vt 0.3520 0.0000 0.0000
vt 0.3520 1.0000 0.0000
vt 1.0000 0.8996 0.0000
vt 0.8519 0.3517 0.0000
vt 0.2963 0.7037 0.0000
vt 0.3854 0.6480 0.0000
vt 0.3854 0.8996 0.0000
vt 0.0716 0.6480 0.0000
vt 1.0000 0.3640 0.0000
vt 0.0716 0.3640 0.0000
vt 0.8997 0.0000 0.0000
vt 0.8997 1.0000 0.0000
vt 0.0000 0.2006 0.0000
vt 0.3854 0.1003 0.0000
vt 0.9750 0.3640 0.0000
vt 0.0716 0.4997 0.0000
vt 0.9750 0.7919 0.0000
vt 0.5695 0.7333 0.0000
vt 0.4578 0.5254 0.0000
vt 0.0305 0.5841 0.0000
vt 0.1355 0.5563 0.0000
vt 0.1364 0.5563 0.0000
vt 0.0451 0.4997 0.0000
vt 0.9244 0.6927 0.0000
vt 0.8946 0.5709 0.0000
vt 0.1138 0.4398 0.0000
vt 0.5231 0.8996 0.0000
vt 0.3697 0.8996 0.0000
vt 0.7100 0.5985 0.0000
vt 0.7772 0.6748 0.0000
vt 0.3854 0.4997 0.0000
vt 0.6906 0.8996 0.0000
vt 0.4221 0.7333 0.0000
vt 0.3854 0.3640 0.0000
vt 0.0716 0.2134 0.0000
vt 0.5795 0.4502 0.0000
vt 0.1995 0.8996 0.0000
vt 0.7954 0.0000 0.0000
vt 0.8005 1.0000 0.0000
vt 0.6427 0.4997 0.0000
vt 0.6381 0.4652 0.0000
vt 0.4053 0.0000 0.0000
vt 0.4053 0.1003 0.0000
vt 0.4157 0.0000 0.0000
vt 0.4053 1.0000 0.0000
vt 0.5843 1.0000 0.0000
vt 0.5843 0.8996 0.0000
vt 0.7954 0.6480 0.0000
vt 0.7954 0.1003 0.0000
vt 0.9750 0.5706 0.0000
vt 0.1380 0.5563 0.0000
vt 0.8686 0.1273 0.0000
vt 0.0630 0.1415 0.0000
vt 0.2057 0.6185 0.0000
vt 0.2084 0.6207 0.0000
vt 0.2018 0.5865 0.0000
vt 0.0716 0.3956 0.0000
vt 0.1817 0.5619 0.0000
vt 0.4053 0.8996 0.0000
vt 0.5843 0.0000 0.0000
vt 0.5947 1.0000 0.0000
vt 0.5843 0.6480 0.0000
vt 0.5843 0.1003 0.0000
vt 0.9750 0.6846 0.0000
vt 0.3602 0.6475 0.0000
vt 0.6570 0.3324 0.0000
vt 0.0463 0.3694 0.0000
vt 0.5259 0.4997 0.0000
vt 0.5325 0.5383 0.0000
vt 0.2835 0.6475 0.0000
vt 0.5843 0.3640 0.0000
vt 0.5992 0.0000 0.0000
vt 0.5992 0.1003 0.0000
vt 0.6146 0.0000 0.0000
vt 0.3854 1.0000 0.0000
vt 0.3353 0.7333 0.0000
vt 0.2457 0.6768 0.0000
vt 0.0716 0.5671 0.0000
vt 0.5843 0.4104 0.0000
vt 0.5314 0.4636 0.0000
vt 0.2696 0.6475 0.0000
vt 0.2940 0.6735 0.0000
vt 0.2406 0.6566 0.0000
vt 0.1956 0.5829 0.0000
vt 0.5843 0.5890 0.0000
vt 0.6380 0.5375 0.0000
vt 0.2713 0.6766 0.0000
vt 0.8804 0.6604 0.0000
vt 0.8870 0.5776 0.0000
vt 0.8673 0.4593 0.0000
vt 0.8856 0.7271 0.0000
vt 0.8142 0.2425 0.0000
vt 0.0000 0.5648 0.0000
vt 0.7640 0.6103 0.0000
vt 0.7814 0.6711 0.0000
vt 0.0000 0.4363 0.0000
vt 0.6909 0.3516 0.0000
vt 0.7847 0.5324 0.0000
vt 0.8505 0.7581 0.0000
vt 0.8421 0.6950 0.0000
vt 0.8664 0.6901 0.0000
vt 0.0000 0.5654 0.0000
vt 0.0000 0.5819 0.0000
vt 0.8515 0.5354 0.0000
vt 0.7994 0.5609 0.0000
vt 0.0000 0.4176 0.0000
vt 0.0000 0.4371 0.0000
# 161 texture coords

o Box001
g Box001
usemtl wire_213154229
s 2
f 1/1/1 2/2/2 3/3/3 4/4/4 
s 4
f 5/5/5 6/6/6 7/7/7 8/8/8 
s 8
f 1/5/1 4/9/4 6/10/6 5/11/5 
s 64
f 9/5/9 10/12/10 11/13/11 12/11/12 
s 2
f 13/14/13 14/15/10 15/16/14 16/17/15 
s 64
f 13/18/13 17/19/2 18/20/16 19/21/17 
s 4
f 20/22/18 21/23/19 22/24/20 23/25/21 
s 32
f 24/5/22 25/26/23 21/27/19 20/28/18 
s off
f 26/29/24 27/30/25 28/30/26 29/29/27 
f 30/5/28 31/8/29 32/8/30 33/5/31 
f 20/22/18 23/25/21 34/25/32 35/22/33 
f 36/22/34 30/1/28 33/1/31 37/22/35 
f 24/5/22 20/28/18 35/28/33 38/5/36 
s 1
f 39/14/37 40/31/38 41/32/39 42/11/40 
s 2
f 43/18/41 44/33/42 45/34/43 46/1/44 
f 16/17/15 47/35/45 48/36/46 49/37/47 
s 4
f 6/6/6 50/38/6 51/39/48 7/7/7 
s 8
f 4/9/4 52/40/49 50/41/6 6/10/6 
s 2
f 53/42/50 54/43/23 55/44/51 56/45/52 
s 4
f 57/10/53 12/11/12 11/46/11 58/47/54 
s 32
f 53/4/50 9/1/9 12/48/12 57/49/53 
s off
f 59/11/36 46/11/44 45/46/43 60/46/55 
f 61/29/56 42/29/40 41/50/39 62/50/57 
f 63/51/58 64/51/59 65/52/60 66/52/61 
f 67/53/62 39/53/37 68/54/63 69/54/64 
f 70/1/31 71/1/65 64/22/59 63/22/58 
f 72/28/33 43/28/41 46/5/44 59/5/36 
s 64
f 10/12/10 14/55/10 73/56/66 11/13/11 
s 2
f 10/57/10 9/48/9 53/42/50 56/45/52 
s off
f 74/46/67 24/11/22 38/11/36 75/46/68 
s 2
f 44/33/42 68/58/63 76/59/69 45/34/43 
f 74/46/67 27/30/25 77/60/70 78/61/71 
s 4
f 11/46/11 73/30/66 79/62/72 58/47/54 
s off
f 45/46/43 76/30/69 80/30/73 60/46/55 
f 44/25/42 43/22/41 72/22/33 81/25/74 
s 2
f 2/2/2 17/63/2 49/37/47 3/3/3 
s 4
f 7/7/7 82/64/75 18/50/16 8/8/8 
s 64
f 2/65/2 1/1/1 5/48/5 8/66/8 
s off
f 31/8/29 83/50/76 84/50/30 32/8/30 
f 85/52/77 36/51/34 37/51/35 86/52/78 
s 1
f 65/57/60 64/48/59 71/5/65 87/67/79 
s 2
f 31/8/29 30/5/28 88/26/80 89/68/81 
s off
f 87/8/79 71/5/65 70/5/31 90/8/27 
f 65/52/60 40/69/38 91/69/82 66/52/61 
f 58/47/54 79/62/72 92/62/83 93/47/84 
f 94/70/85 82/64/75 95/64/86 96/70/87 
f 67/53/62 69/54/64 97/54/88 98/53/89 
f 81/25/74 99/25/32 100/25/90 101/25/91 
f 66/52/61 91/69/82 102/69/92 103/52/93 
f 85/52/77 86/52/78 104/52/94 105/52/95 
s 1
f 106/25/96 23/22/21 22/71/20 107/72/97 
f 85/11/77 105/47/95 108/73/98 109/74/48 
s off
f 96/70/87 110/75/99 111/76/100 92/77/83 
f 98/53/89 97/54/88 112/78/101 113/79/101 
f 96/70/87 95/64/86 114/80/102 110/75/99 
f 115/81/103 116/82/104 117/83/101 118/84/101 
s 2
f 14/15/10 10/57/10 56/45/52 15/16/14 
s off
f 27/30/25 74/46/67 75/46/68 28/30/26 
f 68/54/63 44/25/42 81/25/74 69/54/64 
s 64
f 14/55/10 13/18/13 19/21/17 73/56/66 
s 2
f 68/58/63 39/14/37 42/11/40 76/59/69 
f 27/30/25 26/29/24 119/85/105 77/60/70 
s 4
f 73/30/66 19/29/17 94/70/85 79/62/72 
s off
f 76/30/69 42/29/40 61/29/56 80/30/73 
f 79/62/72 94/70/85 96/70/87 92/62/83 
f 69/54/64 81/25/74 101/25/91 97/54/88 
f 120/86/106 106/25/96 107/72/97 121/87/107 
f 97/54/88 101/25/91 100/25/90 112/78/101 
s 64
f 17/19/2 2/65/2 8/66/8 18/20/16 
s 1
f 40/31/38 65/57/60 87/67/79 41/32/39 
s 2
f 83/50/76 31/8/29 89/68/81 122/88/108 
s off
f 41/50/39 87/8/79 90/8/27 62/50/57 
s 2
f 17/63/2 13/14/13 16/17/15 49/37/47 
s 4
f 82/64/75 94/70/85 19/29/17 18/50/16 
s off
f 83/50/76 26/29/24 29/29/27 84/50/30 
f 40/69/38 39/53/37 67/53/62 91/69/82 
f 82/64/75 7/7/7 123/7/109 95/64/86 
f 91/69/82 67/53/62 98/53/89 102/69/92 
f 95/64/86 123/7/109 124/89/110 114/80/102 
f 116/82/104 105/47/95 104/90/94 117/83/101 
s 4
f 125/41/53 57/10/53 58/47/54 126/91/111 
s 32
f 54/92/23 53/4/50 57/49/53 125/93/53 
s 2
f 47/35/45 127/94/112 128/95/113 48/36/46 
s 4
f 50/38/6 129/96/6 130/97/48 51/39/48 
s 8
f 52/40/49 131/98/80 129/99/6 50/41/6 
s 2
f 54/43/23 132/100/23 133/101/114 55/44/51 
f 134/102/115 15/16/14 56/45/52 55/44/51 
f 52/92/49 4/4/4 3/3/3 135/103/116 
s 1
f 126/104/111 58/53/54 93/29/84 136/105/117 
f 124/106/110 123/1/109 7/9/7 51/107/48 
s off
f 110/75/99 137/108/118 138/109/119 111/76/100 
f 114/80/102 139/110/120 137/108/118 110/75/99 
s 2
f 47/35/45 16/17/15 15/16/14 134/102/115 
s off
f 136/105/117 93/29/84 92/77/83 111/76/100 
s 2
f 135/103/116 3/3/3 49/37/47 48/36/46 
s off
f 124/89/110 140/111/110 141/112/121 114/80/102 
s 4
f 21/23/19 142/99/53 143/113/122 22/24/20 
s 32
f 25/26/23 132/114/23 142/115/53 21/27/19 
s 2
f 77/60/70 144/116/123 133/101/114 78/61/71 
f 88/26/80 131/114/80 145/117/81 89/68/81 
s 1
f 22/71/20 143/118/122 146/119/124 107/72/97 
f 108/73/98 140/120/110 130/121/48 109/74/48 
s 2
f 119/85/105 147/122/125 148/123/126 77/60/70 
s off
f 107/72/97 146/119/124 149/124/127 121/87/107 
s 2
f 89/68/81 145/117/81 150/125/128 122/88/108 
f 119/85/105 26/29/24 83/50/76 122/88/108 
s 4
f 151/126/129 36/51/34 85/52/77 109/127/48 
s 8
f 88/128/80 30/1/28 36/22/34 151/23/129 
s 2
f 25/129/23 24/11/22 74/46/67 78/61/71 
s off
f 152/130/130 115/81/103 120/86/106 121/87/107 
f 153/131/131 116/82/104 115/81/103 152/130/130 
f 108/132/98 105/47/95 116/82/104 153/131/131 
s 2
f 154/133/132 155/134/133 122/88/108 150/125/128 
s 4
f 129/96/6 151/126/129 109/127/48 130/97/48 
s 8
f 131/98/80 88/128/80 151/23/129 129/99/6 
s 2
f 132/100/23 25/129/23 78/61/71 133/101/114 
s off
f 156/135/134 157/136/135 121/87/107 149/124/127 
f 141/112/121 153/131/131 158/137/136 159/138/137 
f 140/111/110 108/132/98 153/131/131 141/112/121 
s 4
f 142/99/53 125/41/53 126/91/111 143/113/122 
s 32
f 132/114/23 54/92/23 125/93/53 142/115/53 
s 2
f 144/116/123 134/102/115 55/44/51 133/101/114 
f 131/114/80 52/92/49 135/103/116 145/117/81 
s 1
f 143/118/122 126/104/111 136/105/117 146/119/124 
f 140/120/110 124/106/110 51/107/48 130/121/48 
s 2
f 160/139/138 161/140/139 134/102/115 144/116/123 
s off
f 146/119/124 136/105/117 111/76/100 149/124/127 
s 2
f 145/117/81 135/103/116 48/36/46 150/125/128 
f 128/95/113 154/133/132 150/125/128 48/36/46 
s off
f 138/109/119 156/135/134 149/124/127 111/76/100 
f 114/80/102 141/112/121 159/138/137 139/110/120 
s 2
f 148/123/126 160/139/138 144/116/123 77/60/70 
f 155/134/133 147/122/125 119/85/105 122/88/108 
s off
f 157/136/135 162/141/140 152/130/130 121/87/107 
f 153/131/131 152/130/130 162/141/140 158/137/136 
s 2
f 161/140/139 127/94/112 47/35/45 134/102/115 
s 1
f 160/35/138 148/36/126 157/92/135 156/44/134 
f 161/69/139 160/35/138 156/44/134 138/102/119 
s 4
f 127/41/112 161/69/139 138/102/119 137/19/118 
s 1
f 128/38/113 127/41/112 137/19/118 139/104/120 
s 4
f 154/40/132 128/38/113 139/104/120 159/41/137 
f 155/92/133 154/40/132 159/41/137 158/93/136 
s 9
f 147/103/125 155/92/133 158/93/136 162/43/140 
s 4
f 148/36/126 147/103/125 162/43/140 157/92/135 
s off
f 163/30/141 80/30/73 61/29/56 164/29/142 
f 165/8/30 90/8/27 70/5/31 166/5/143 
f 99/25/32 81/25/74 72/22/33 167/22/33 
f 166/1/143 70/1/31 63/22/58 168/22/58 
f 167/28/33 72/28/33 59/5/36 169/5/144 
f 169/11/144 59/11/36 60/46/55 170/46/145 
f 171/50/146 62/50/57 90/8/27 165/8/30 
f 168/51/58 63/51/58 66/52/61 172/52/78 
f 99/25/32 173/25/32 174/25/147 100/25/90 
f 172/52/78 66/52/61 103/52/93 175/52/148 
f 112/78/101 176/142/149 177/143/150 113/79/101 
f 178/144/101 102/69/92 98/53/89 113/79/101 
f 170/46/145 60/46/55 80/30/73 163/30/141 
f 100/25/90 174/25/147 179/145/101 112/78/101 
f 164/29/142 61/29/56 62/50/57 171/50/146 
f 175/146/148 103/52/93 102/69/92 178/144/101 
f 28/30/26 180/147/151 181/29/152 29/29/27 
f 32/8/30 182/8/30 183/5/31 33/5/31 
f 34/25/32 173/25/32 184/22/33 35/22/33 
f 33/1/31 183/1/31 185/22/35 37/22/35 
f 35/28/33 184/28/33 186/5/36 38/5/36 
f 38/11/36 186/11/36 187/46/68 75/46/68 
f 84/50/30 188/50/153 182/8/30 32/8/30 
f 37/51/35 185/51/35 189/52/78 86/52/78 
f 86/52/78 189/52/78 190/52/148 104/52/94 
f 117/83/101 191/148/154 192/149/155 118/84/101 
f 75/46/68 187/46/68 193/30/68 28/30/26 
f 29/29/27 181/29/152 194/150/156 84/50/30 
f 104/90/94 190/151/148 195/152/101 117/83/101 
f 34/25/32 23/25/21 106/25/96 196/25/147 
f 197/153/101 120/86/106 115/81/103 118/84/101 
f 196/25/147 106/25/96 120/86/106 197/153/101 
f 173/25/32 34/25/32 196/25/147 174/25/147 
f 179/145/101 197/153/101 198/154/157 199/155/158 
f 174/25/147 196/25/147 197/153/101 179/145/101 
f 193/30/68 163/30/141 200/156/159 201/157/160 
f 182/8/30 165/8/30 166/5/143 183/5/31 
f 173/25/32 99/25/32 167/22/33 184/22/33 
f 183/1/31 166/1/143 168/22/58 185/22/35 
f 184/28/33 167/28/33 169/5/144 186/5/36 
f 186/11/36 169/11/144 170/46/145 187/46/68 
f 188/50/153 171/50/146 165/8/30 182/8/30 
f 185/51/35 168/51/58 172/52/78 189/52/78 
f 189/52/78 172/52/78 175/52/148 190/52/148 
f 195/152/101 178/144/101 202/158/161 203/159/162 
f 187/46/68 170/46/145 163/30/141 193/30/68 
f 204/160/163 205/161/164 171/50/146 188/50/153 
f 190/151/148 175/146/148 178/144/101 195/152/101 
f 112/78/101 179/145/101 199/155/158 176/142/149 
f 117/83/101 195/152/101 203/159/162 191/148/154 
f 194/150/156 204/160/163 188/50/153 84/50/30 
f 197/153/101 118/84/101 192/149/155 198/154/157 
f 163/30/141 164/29/142 206/29/165 200/156/159 
f 178/144/101 113/79/101 177/143/150 202/158/161 
f 205/161/164 206/29/165 164/29/142 171/50/146 
f 28/30/26 193/30/68 201/157/160 180/147/151 
s 1
f 191/148/154 203/159/162 204/160/163 194/150/156 
f 203/159/162 202/158/161 205/161/164 204/160/163 
s 2
f 202/158/161 177/143/150 206/29/165 205/161/164 
s 1
f 177/143/150 176/142/149 200/156/159 206/29/165 
s 2
f 176/142/149 199/155/158 201/157/160 200/156/159 
f 199/155/158 198/154/157 180/147/151 201/157/160 
f 198/154/157 192/149/155 181/29/152 180/147/151 
s 1
f 192/149/155 191/148/154 194/150/156 181/29/152 
# 208 polygons

