# 3ds Max Wavefront OBJ Exporter v0.97b - (c)2007 guruware
# File Created: 15.02.2018 23:07:50

mtllib seduta.mtl

#
# object Rectangle005
#

v  -174.5876 448.5584 235.4722
v  -173.9430 448.5584 235.4722
v  -173.9430 448.5584 235.2493
v  -174.5876 448.5584 235.2493
v  -174.5876 448.5584 199.5898
v  -174.5876 448.5584 198.8308
v  -188.5274 448.5584 198.8308
v  -188.5274 448.5584 199.5898
v  161.8013 448.5584 199.5898
v  161.8013 448.5584 198.8308
v  161.5495 448.5584 198.8308
v  161.5495 448.5584 199.5898
v  147.7352 448.5584 -180.6511
v  147.0919 448.5584 -180.6511
v  147.0919 448.5584 -179.8906
v  147.7352 448.5584 -179.8906
v  -188.8078 448.5584 199.5898
v  -188.8078 448.5584 198.8308
v  -188.8078 448.2503 198.8308
v  -188.8078 448.2503 199.5898
v  161.5495 448.5584 -180.6511
v  161.5495 448.2503 -180.6511
v  147.7352 448.2503 -180.6511
v  147.7352 448.5584 235.4722
v  147.0919 448.5584 235.4722
v  147.0919 448.2503 235.4722
v  147.7352 448.2503 235.4722
v  -188.8078 448.5584 -180.6511
v  -188.5274 448.5584 -180.6511
v  -188.5274 448.2503 -180.6511
v  -188.8078 448.2503 -180.6511
v  -174.5876 448.2503 235.2493
v  -174.5876 448.2503 235.4722
v  161.8013 448.5584 -180.6511
v  161.8013 448.5584 -179.8906
v  161.8013 448.2503 -179.8906
v  161.8013 448.2503 -180.6511
v  -188.5274 448.2503 199.5898
v  -174.5876 448.2503 199.5898
v  161.5495 448.2503 199.5898
v  161.8013 448.2503 199.5898
v  -174.5876 448.5584 -180.6511
v  -173.9430 448.5584 -180.6511
v  -173.9430 448.2503 -180.6511
v  -174.5876 448.2503 -180.6511
v  147.7352 448.5584 199.5898
v  147.7352 448.5584 235.2493
v  147.7352 448.2503 235.2493
v  147.7352 448.2503 199.5898
v  -188.8078 435.8958 -180.6511
v  -188.5274 435.8958 -180.6511
v  -174.5876 435.8958 -180.6511
v  -173.9430 435.8958 -180.6511
v  147.0919 435.8958 -180.6511
v  147.7352 435.8958 -180.6511
v  161.5495 435.8958 -180.6511
v  161.8013 435.8958 -180.6511
v  161.8013 435.8958 -179.8906
v  -188.8078 435.8958 -179.8906
v  -174.5876 448.5584 -179.8906
v  -188.5274 448.5584 -179.8906
v  161.5495 448.5584 -179.8906
v  -173.9430 448.5584 198.8308
v  -173.9430 448.5584 -179.8906
v  -188.8078 448.5584 -179.8906
v  -188.8078 448.2503 -179.8906
v  161.8013 448.2503 198.8308
v  161.8013 435.8958 198.8308
v  -188.8078 435.8958 198.8308
v  -188.8078 435.9788 -179.8906
v  -188.8078 435.9788 198.8308
v  161.8013 435.9788 -180.6511
v  161.5495 435.9788 -180.6511
v  -174.5876 435.9788 235.4722
v  -173.9430 435.9788 235.4722
v  -173.9430 448.2503 235.4722
v  -188.5274 435.9788 -180.6511
v  -188.8078 435.9788 -180.6511
v  -174.5876 435.9788 199.5898
v  -174.5876 435.9788 235.2493
v  161.8013 435.9788 -179.8906
v  -188.5274 435.9788 199.5898
v  147.7352 435.9788 199.5898
v  161.5495 435.9788 199.5898
v  147.7352 435.9788 -180.6511
v  147.0919 435.9788 -180.6511
v  147.0919 448.2503 -180.6511
v  147.7352 435.9788 235.4722
v  147.7352 435.9788 235.2493
v  161.8013 435.9788 199.5898
v  161.8013 435.9788 198.8308
v  -174.5876 435.9788 -180.6511
v  -188.8078 435.9788 199.5898
v  -174.5876 435.8958 235.4722
v  -173.9430 435.8958 235.4722
v  -174.5876 435.8958 199.5898
v  -174.5876 435.8958 235.2493
v  -188.5274 435.8958 199.5898
v  147.7352 435.8958 199.5898
v  161.5495 435.8958 199.5898
v  147.7352 435.8958 235.4722
v  147.7352 435.8958 235.2493
v  161.8013 435.8958 199.5898
v  -188.8078 435.8958 199.5898
v  -173.9430 448.5584 199.5898
v  147.0919 448.5584 235.2493
v  147.0919 448.5584 198.8308
v  147.0919 435.9788 235.4722
v  -173.9430 435.9788 -180.6511
v  147.0919 435.8958 235.4722
v  147.0919 448.5584 199.5898
v  147.7352 448.5584 198.8308
# 112 vertices

vn -0.5774 0.5774 0.5774
vn 0.0000 0.7071 0.7071
vn 0.0000 1.0000 -0.0000
vn -0.7071 0.7071 -0.0000
vn -0.3015 0.9045 0.3015
vn 0.5774 0.5774 0.5774
vn 0.7071 0.7071 -0.0000
vn 0.0000 0.7071 -0.7071
vn -1.0000 0.0000 -0.0000
vn -0.7071 0.0000 0.7071
vn 0.0000 0.0000 -1.0000
vn 0.0000 0.0000 1.0000
vn 0.7071 0.0000 0.7071
vn -0.5774 0.5774 -0.5774
vn -0.7071 0.0000 -0.7071
vn 0.5774 0.5774 -0.5774
vn 1.0000 0.0000 -0.0000
vn 0.7071 0.0000 -0.7071
vn 0.3015 0.9045 0.3015
vn -0.5774 -0.5774 -0.5774
vn 0.0000 -0.7071 -0.7071
vn 0.5774 -0.5774 -0.5774
vn 0.7071 -0.7071 -0.0000
vn -0.7071 -0.7071 -0.0000
vn -0.5774 -0.5774 0.5774
vn 0.0000 -0.7071 0.7071
vn 0.5774 -0.5774 0.5774
vn 0.7071 -0.7071 0.0000
# 28 vertex normals

o Rectangle005
g Rectangle005
usemtl wire_088088225
s 1
f 1//1 2//2 3//3 4//4 
f 5//5 6//3 7//3 8//2 
f 9//6 10//7 11//3 12//2 
f 13//8 14//8 15//3 16//3 
s off
f 17//1 18//4 19//9 20//10 
f 13//8 21//8 22//11 23//11 
f 24//6 25//2 26//12 27//13 
f 28//14 29//8 30//11 31//15 
f 1//1 4//4 32//9 33//10 
f 34//16 35//7 36//17 37//18 
f 5//5 8//2 38//12 39//10 
f 9//6 12//2 40//12 41//13 
f 42//8 43//8 44//11 45//11 
f 46//19 47//7 48//17 49//13 
f 50//20 51//21 52//21 53//21 54//21 55//21 56//21 57//22 58//23 59//24 
s 1
f 60//3 42//8 29//8 61//3 
f 35//7 34//16 21//8 62//3 
f 60//3 6//3 63//3 64//3 
s off
f 65//4 28//14 31//15 66//9 
f 35//7 10//7 67//17 36//17 
f 58//23 68//23 69//24 59//24 
s 1
f 61//3 65//4 18//4 7//3 
s off
f 29//8 42//8 45//11 30//11 
f 8//2 17//1 20//10 38//12 
s 1
f 29//8 28//14 65//4 61//3 
s off
f 66//9 70//9 71//9 19//9 
f 37//18 72//18 73//11 22//11 
f 33//10 74//10 75//12 76//12 
f 30//11 77//11 78//15 31//15 
f 39//10 79//10 80//9 32//9 
f 36//17 81//17 72//18 37//18 
f 38//12 82//12 79//10 39//10 
f 49//13 83//13 84//12 40//12 
f 23//11 85//11 86//11 87//11 
f 27//13 88//13 89//17 48//17 
f 31//15 78//15 70//9 66//9 
f 41//13 90//13 91//17 67//17 
f 45//11 92//11 77//11 30//11 
f 20//10 93//10 82//12 38//12 
f 70//9 59//24 69//24 71//9 
f 72//18 57//22 56//21 73//11 
f 74//10 94//25 95//26 75//12 
f 77//11 51//21 50//20 78//15 
f 79//10 96//1 97//24 80//9 
f 81//17 58//23 57//22 72//18 
f 82//12 98//26 96//1 79//10 
f 83//13 99//6 100//26 84//12 
f 85//11 55//21 54//21 86//11 
f 88//13 101//27 102//28 89//17 
f 78//15 50//20 59//24 70//9 
f 90//13 103//27 68//23 91//17 
f 92//11 52//21 51//21 77//11 
f 93//10 104//25 98//26 82//12 
s 1
f 6//3 60//3 61//3 7//3 
f 10//7 35//7 62//3 11//3 
s off
f 18//4 65//4 66//9 19//9 
s 1
f 6//3 5//5 105//3 63//3 
s off
f 10//7 9//6 41//13 67//17 
f 68//23 103//27 100//26 99//6 102//28 97//24 96//1 98//26 104//25 69//24 
s 1
f 18//4 17//1 8//2 7//3 
s off
f 71//9 93//10 20//10 19//9 
f 91//17 81//17 36//17 67//17 
f 69//24 104//25 93//10 71//9 
f 68//23 58//23 81//17 91//17 
s 1
f 2//2 25//2 106//3 3//3 
f 43//8 42//8 60//3 64//3 
s off
f 2//2 1//1 33//10 76//12 
f 43//8 14//8 87//11 44//11 
s 1
f 63//3 107//3 15//3 64//3 
s off
f 75//12 108//12 26//12 76//12 
f 109//11 92//11 45//11 44//11 
f 95//26 110//26 108//12 75//12 
f 53//21 52//21 92//11 109//11 
s 1
f 105//3 111//3 107//3 63//3 
f 3//3 105//3 5//5 4//4 
s off
f 4//4 5//5 39//10 32//9 
f 47//7 24//6 27//13 48//17 
f 80//9 74//10 33//10 32//9 
f 89//17 83//13 49//13 48//17 
f 97//24 94//25 74//10 80//9 
f 102//28 99//6 83//13 89//17 
f 102//28 101//27 110//26 95//26 94//25 97//24 
s 1
f 47//7 46//19 111//3 106//3 
f 14//8 43//8 64//3 15//3 
s off
f 25//2 2//2 76//12 26//12 
f 86//11 109//11 44//11 87//11 
f 54//21 53//21 109//11 86//11 
s 1
f 25//2 24//6 47//7 106//3 
s off
f 14//8 13//8 23//11 87//11 
s 1
f 107//3 112//3 16//3 15//3 
s off
f 108//12 88//13 27//13 26//12 
f 110//26 101//27 88//13 108//12 
s 1
f 111//3 46//19 112//3 107//3 
f 111//3 105//3 3//3 106//3 
f 11//3 112//3 46//19 12//2 
s off
f 21//8 34//16 37//18 22//11 
f 12//2 46//19 49//13 40//12 
s 1
f 21//8 13//8 16//3 62//3 
s off
f 73//11 85//11 23//11 22//11 
f 84//12 90//13 41//13 40//12 
f 56//21 55//21 85//11 73//11 
f 100//26 103//27 90//13 84//12 
s 1
f 62//3 16//3 112//3 11//3 
# 103 polygons

